<svg width="22" height="27" viewBox="0 0 22 27" fill="none" xmlns="http://www.w3.org/2000/svg">
<path d="M4.06154 13.5233C3.8461 13.5233 3.63949 13.6089 3.48715 13.7612C3.33481 13.9135 3.24923 14.1202 3.24923 14.3356C3.24923 14.551 3.33481 14.7577 3.48715 14.91C3.63949 15.0623 3.8461 15.1479 4.06154 15.1479C4.27698 15.1479 4.48359 15.0623 4.63593 14.91C4.78826 14.7577 4.87385 14.551 4.87385 14.3356C4.87385 14.1202 4.78826 13.9135 4.63593 13.7612C4.48359 13.6089 4.27698 13.5233 4.06154 13.5233ZM3.24923 17.5848C3.24923 17.3694 3.33481 17.1628 3.48715 17.0104C3.63949 16.8581 3.8461 16.7725 4.06154 16.7725C4.27698 16.7725 4.48359 16.8581 4.63593 17.0104C4.78826 17.1628 4.87385 17.3694 4.87385 17.5848C4.87385 17.8003 4.78826 18.0069 4.63593 18.1592C4.48359 18.3116 4.27698 18.3971 4.06154 18.3971C3.8461 18.3971 3.63949 18.3116 3.48715 18.1592C3.33481 18.0069 3.24923 17.8003 3.24923 17.5848ZM6.49846 14.3356C6.49846 14.1202 6.58404 13.9135 6.73638 13.7612C6.88872 13.6089 7.09533 13.5233 7.31077 13.5233H13.8092C14.0247 13.5233 14.2313 13.6089 14.3836 13.7612C14.536 13.9135 14.6215 14.1202 14.6215 14.3356C14.6215 14.551 14.536 14.7577 14.3836 14.91C14.2313 15.0623 14.0247 15.1479 13.8092 15.1479H7.31077C7.09533 15.1479 6.88872 15.0623 6.73638 14.91C6.58404 14.7577 6.49846 14.551 6.49846 14.3356ZM7.31077 16.7725C7.09533 16.7725 6.88872 16.8581 6.73638 17.0104C6.58404 17.1628 6.49846 17.3694 6.49846 17.5848C6.49846 17.8003 6.58404 18.0069 6.73638 18.1592C6.88872 18.3116 7.09533 18.3971 7.31077 18.3971H13.8092C14.0247 18.3971 14.2313 18.3116 14.3836 18.1592C14.536 18.0069 14.6215 17.8003 14.6215 17.5848C14.6215 17.3694 14.536 17.1628 14.3836 17.0104C14.2313 16.8581 14.0247 16.7725 13.8092 16.7725H7.31077ZM3.24923 0.526367C2.38748 0.526367 1.56103 0.868696 0.951678 1.47804C0.342329 2.08739 0 2.91385 0 3.7756V20.0218C0 20.8835 0.342329 21.71 0.951678 22.3193C1.56103 22.9287 2.38748 23.271 3.24923 23.271H14.6215C15.4833 23.271 16.3097 22.9287 16.9191 22.3193C17.5284 21.71 17.8708 20.8835 17.8708 20.0218V9.32204C17.8702 8.67594 17.6131 8.05652 17.1559 7.59994L10.7972 1.23957C10.3404 0.783027 9.72096 0.526505 9.0751 0.526367H3.24923ZM1.62462 3.7756C1.62462 3.34472 1.79578 2.9315 2.10045 2.62682C2.40513 2.32215 2.81836 2.15098 3.24923 2.15098H8.12308V7.83714C8.12308 8.48345 8.37982 9.10329 8.83683 9.5603C9.29385 10.0173 9.91369 10.2741 10.56 10.2741H16.2462V20.0218C16.2462 20.4526 16.075 20.8659 15.7703 21.1705C15.4656 21.4752 15.0524 21.6464 14.6215 21.6464H3.24923C2.81836 21.6464 2.40513 21.4752 2.10045 21.1705C1.79578 20.8659 1.62462 20.4526 1.62462 20.0218V3.7756ZM9.74769 7.83714V2.48728L15.9099 8.64945H10.56C10.3446 8.64945 10.1379 8.56386 9.98561 8.41153C9.83327 8.25919 9.74769 8.05258 9.74769 7.83714ZM19.4954 10.2741C19.9263 10.2741 20.3395 10.4452 20.6442 10.7499C20.9488 11.0546 21.12 11.4678 21.12 11.8987V20.1192C21.12 20.9598 20.9544 21.7922 20.6328 22.5688C20.3111 23.3454 19.8396 24.051 19.2452 24.6454C18.6508 25.2398 17.9452 25.7113 17.1686 26.033C16.392 26.3547 15.5596 26.5202 14.719 26.5202H4.87385C4.44297 26.5202 4.02974 26.3491 3.72507 26.0444C3.4204 25.7397 3.24923 25.3265 3.24923 24.8956H14.6215C15.9142 24.8956 17.1538 24.3821 18.0679 23.4681C18.9819 22.5541 19.4954 21.3144 19.4954 20.0218V10.2741Z" fill="white"/>
</svg>
