<svg width="237" height="26" viewBox="0 0 237 26" fill="none" xmlns="http://www.w3.org/2000/svg">
<path d="M25.1609 4.95087C24.2363 5.36058 23.243 5.63741 22.1988 5.76254C23.2763 5.11785 24.0823 4.10318 24.4666 2.90786C23.4544 3.50912 22.3465 3.93235 21.1912 4.15913C20.4143 3.3296 19.3852 2.77977 18.2638 2.59501C17.1423 2.41025 15.9913 2.6009 14.9893 3.13736C13.9874 3.67381 13.1905 4.52606 12.7225 5.56178C12.2546 6.59751 12.1416 7.75876 12.4012 8.86525C10.3501 8.76227 8.34361 8.22915 6.51187 7.3005C4.68014 6.37185 3.06413 5.06842 1.76874 3.47481C1.32581 4.23886 1.07113 5.12472 1.07113 6.06816C1.07064 6.91747 1.27979 7.75377 1.68002 8.50286C2.08026 9.25196 2.65921 9.89068 3.3655 10.3624C2.54639 10.3363 1.74535 10.115 1.02905 9.71678V9.78322C1.02897 10.9744 1.44101 12.129 2.19526 13.0509C2.94952 13.9729 3.99952 14.6055 5.16711 14.8415C4.40725 15.0471 3.61059 15.0774 2.83731 14.9301C3.16673 15.955 3.80843 16.8513 4.67255 17.4934C5.53667 18.1356 6.57997 18.4914 7.65638 18.5111C5.82911 19.9456 3.57245 20.7237 1.24941 20.7202C0.837907 20.7204 0.426753 20.6963 0.0180664 20.6483C2.37608 22.1644 5.12098 22.969 7.92435 22.9659C17.4141 22.9659 22.6019 15.1061 22.6019 8.28945C22.6019 8.06798 22.5964 7.8443 22.5864 7.62284C23.5955 6.89308 24.4665 5.98942 25.1587 4.95419L25.1609 4.95087Z" fill="white"/>
<path d="M235.542 2.52637L210.399 12.5835L233.656 22.6407L235.542 2.52637ZM220.456 24.5264L224.227 18.8692L220.456 24.5264ZM227.37 10.6978L219.199 16.3549L220.279 23.9129C220.377 24.5993 220.55 24.588 220.663 23.9091L221.713 17.6121L227.37 10.6978Z" fill="#2B2B2B" stroke="white" stroke-width="2"/>
<path d="M126.493 5.28084C124.891 4.55798 123.173 4.0237 121.376 3.71989C121.36 3.71682 121.343 3.7188 121.328 3.72555C121.314 3.73231 121.301 3.74351 121.293 3.7576C121.073 4.14417 120.828 4.64808 120.656 5.04617C118.751 4.76147 116.813 4.76147 114.908 5.04617C114.716 4.60498 114.501 4.17479 114.261 3.7576C114.253 3.74334 114.241 3.73188 114.226 3.72477C114.212 3.71766 114.195 3.71522 114.179 3.71779C112.383 4.0216 110.665 4.55589 109.061 5.27979C109.047 5.28558 109.036 5.29545 109.028 5.30808C105.767 10.1009 104.874 14.7754 105.313 19.3912C105.314 19.4025 105.317 19.4135 105.323 19.4234C105.329 19.4333 105.336 19.4419 105.345 19.4488C107.248 20.8342 109.37 21.8896 111.624 22.5707C111.639 22.5756 111.656 22.5756 111.672 22.5707C111.687 22.5658 111.701 22.5564 111.712 22.5435C112.196 21.894 112.627 21.2078 112.996 20.487C113.018 20.4451 112.997 20.3948 112.953 20.3781C112.276 20.1232 111.621 19.8157 110.992 19.4583C110.981 19.4518 110.971 19.4427 110.964 19.4316C110.957 19.4206 110.953 19.408 110.952 19.3951C110.952 19.3821 110.954 19.3691 110.959 19.3573C110.965 19.3454 110.973 19.3352 110.983 19.3273C111.115 19.2299 111.247 19.1283 111.373 19.0267C111.385 19.0175 111.398 19.0117 111.413 19.0098C111.427 19.008 111.442 19.0102 111.455 19.0162C115.569 20.8642 120.024 20.8642 124.09 19.0162C124.104 19.0098 124.118 19.0074 124.133 19.009C124.148 19.0107 124.161 19.0164 124.173 19.0256C124.299 19.1283 124.43 19.2299 124.563 19.3273C124.573 19.335 124.582 19.3451 124.587 19.3569C124.593 19.3686 124.595 19.3815 124.595 19.3945C124.594 19.4075 124.59 19.4201 124.584 19.4312C124.577 19.4423 124.568 19.4516 124.556 19.4583C123.93 19.8186 123.278 20.1235 122.594 20.377C122.584 20.3808 122.574 20.3869 122.566 20.3947C122.558 20.4025 122.552 20.4119 122.548 20.4223C122.544 20.4327 122.542 20.4439 122.543 20.455C122.543 20.4662 122.546 20.4771 122.551 20.487C122.928 21.2067 123.36 21.8919 123.835 22.5425C123.844 22.5558 123.858 22.5658 123.874 22.571C123.89 22.5763 123.907 22.5766 123.923 22.5718C126.18 21.8926 128.305 20.8367 130.21 19.4488C130.22 19.4423 130.228 19.4339 130.233 19.4242C130.239 19.4144 130.243 19.4035 130.244 19.3923C130.768 14.0557 129.366 9.41894 126.526 5.31017C126.519 5.29682 126.507 5.28641 126.493 5.28084ZM113.611 16.5805C112.373 16.5805 111.351 15.4606 111.351 14.0871C111.351 12.7126 112.353 11.5938 113.611 11.5938C114.879 11.5938 115.891 12.7221 115.871 14.0871C115.871 15.4616 114.869 16.5805 113.611 16.5805ZM121.966 16.5805C120.726 16.5805 119.706 15.4606 119.706 14.0871C119.706 12.7126 120.706 11.5938 121.966 11.5938C123.233 11.5938 124.245 12.7221 124.225 14.0871C124.225 15.4616 123.234 16.5805 121.966 16.5805Z" fill="white"/>
</svg>
