<svg width="25" height="23" viewBox="0 0 25 23" fill="none" xmlns="http://www.w3.org/2000/svg">
<path d="M2.75337 15.6514C2.75337 16.016 2.89823 16.3658 3.1561 16.6236C3.41396 16.8815 3.7637 17.0264 4.12837 17.0264C4.49304 17.0264 4.84278 16.8815 5.10064 16.6236C5.3585 16.3658 5.50337 16.016 5.50337 15.6514C5.50337 15.2867 5.3585 14.937 5.10064 14.6791C4.84278 14.4212 4.49304 14.2764 4.12837 14.2764C3.7637 14.2764 3.41396 14.4212 3.1561 14.6791C2.89823 14.937 2.75337 15.2867 2.75337 15.6514ZM2.75337 19.5426C1.94826 19.2585 1.25109 18.7317 0.757955 18.0348C0.264819 17.3379 -2.63197e-07 16.5051 -3.00516e-07 15.6514C-3.37835e-07 14.7976 0.264819 13.9649 0.757954 13.2679C1.25109 12.571 1.94826 12.0442 2.75337 11.7601L2.75337 1.90137C2.75337 1.5367 2.89823 1.18696 3.1561 0.929096C3.41396 0.671234 3.7637 0.526369 4.12837 0.526369C4.49304 0.526369 4.84278 0.671234 5.10064 0.929096C5.3585 1.18696 5.50337 1.5367 5.50337 1.90137L5.50337 11.7601C6.30848 12.0442 7.00565 12.571 7.49878 13.2679C7.99192 13.9649 8.25674 14.7976 8.25674 15.6514C8.25674 16.5051 7.99192 17.3379 7.49878 18.0348C7.00565 18.7317 6.30848 19.2585 5.50337 19.5426L5.50337 21.1514C5.50337 21.516 5.3585 21.8658 5.10064 22.1236C4.84278 22.3815 4.49304 22.5264 4.12837 22.5264C3.7637 22.5264 3.41396 22.3815 3.1561 22.1236C2.89824 21.8658 2.75337 21.516 2.75337 21.1514L2.75337 19.5426ZM11.0034 7.40137C11.0034 7.76604 11.1482 8.11578 11.4061 8.37364C11.664 8.6315 12.0137 8.77637 12.3784 8.77637C12.743 8.77637 13.0928 8.6315 13.3506 8.37364C13.6085 8.11578 13.7534 7.76604 13.7534 7.40137C13.7534 7.03669 13.6085 6.68696 13.3506 6.4291C13.0928 6.17123 12.743 6.02637 12.3784 6.02637C12.0137 6.02637 11.664 6.17123 11.4061 6.4291C11.1482 6.68696 11.0034 7.03669 11.0034 7.40137ZM11.0034 11.2926C10.1983 11.0085 9.50109 10.4817 9.00795 9.78479C8.51482 9.08786 8.25 8.25512 8.25 7.40137C8.25 6.54761 8.51482 5.71488 9.00795 5.01794C9.50109 4.32101 10.1983 3.7942 11.0034 3.51012L11.0034 1.90137C11.0034 1.53669 11.1482 1.18696 11.4061 0.929096C11.664 0.671234 12.0137 0.526369 12.3784 0.526369C12.743 0.526369 13.0928 0.671234 13.3506 0.929096C13.6085 1.18696 13.7534 1.53669 13.7534 1.90137L13.7534 3.51012C14.5585 3.7942 15.2556 4.32101 15.7488 5.01794C16.2419 5.71488 16.5067 6.54761 16.5067 7.40137C16.5067 8.25512 16.2419 9.08786 15.7488 9.78479C15.2556 10.4817 14.5585 11.0085 13.7534 11.2926L13.7534 21.1514C13.7534 21.516 13.6085 21.8658 13.3506 22.1236C13.0928 22.3815 12.743 22.5264 12.3784 22.5264C12.0137 22.5264 11.664 22.3815 11.4061 22.1236C11.1482 21.8658 11.0034 21.516 11.0034 21.1514L11.0034 11.2926ZM19.2534 15.6514C19.2534 16.016 19.3982 16.3658 19.6561 16.6236C19.914 16.8815 20.2637 17.0264 20.6284 17.0264C20.993 17.0264 21.3428 16.8815 21.6006 16.6236C21.8585 16.3658 22.0034 16.016 22.0034 15.6514C22.0034 15.2867 21.8585 14.937 21.6006 14.6791C21.3428 14.4212 20.993 14.2764 20.6284 14.2764C20.2637 14.2764 19.914 14.4212 19.6561 14.6791C19.3982 14.937 19.2534 15.2867 19.2534 15.6514ZM19.2534 19.5426C18.4483 19.2585 17.7511 18.7317 17.258 18.0348C16.7648 17.3379 16.5 16.5051 16.5 15.6514C16.5 14.7976 16.7648 13.9649 17.258 13.2679C17.7511 12.571 18.4483 12.0442 19.2534 11.7601L19.2534 1.90137C19.2534 1.53669 19.3982 1.18696 19.6561 0.929095C19.914 0.671233 20.2637 0.526368 20.6284 0.526368C20.993 0.526368 21.3428 0.671233 21.6006 0.929095C21.8585 1.18696 22.0034 1.53669 22.0034 1.90137L22.0034 11.7601C22.8085 12.0442 23.5056 12.571 23.9988 13.2679C24.4919 13.9649 24.7567 14.7976 24.7567 15.6514C24.7567 16.5051 24.4919 17.3379 23.9988 18.0348C23.5056 18.7317 22.8085 19.2585 22.0034 19.5426L22.0034 21.1514C22.0034 21.516 21.8585 21.8658 21.6006 22.1236C21.3428 22.3815 20.993 22.5264 20.6284 22.5264C20.2637 22.5264 19.914 22.3815 19.6561 22.1236C19.3982 21.8658 19.2534 21.516 19.2534 21.1514L19.2534 19.5426Z" fill="white"/>
</svg>
