<svg width="26" height="25" viewBox="0 0 26 25" fill="none" xmlns="http://www.w3.org/2000/svg">
<path d="M11.3779 2.24329C11.5835 2.01746 11.834 1.83704 12.1133 1.71359C12.3926 1.59014 12.6946 1.52637 13 1.52637C13.3054 1.52637 13.6074 1.59014 13.8867 1.71359C14.166 1.83704 14.4165 2.01746 14.6221 2.24329L15.7408 3.47165C15.958 3.7101 16.2251 3.89771 16.5231 4.02112C16.8211 4.14453 17.1427 4.2007 17.4648 4.18563L19.1242 4.10886C19.4291 4.09449 19.7337 4.14393 20.0184 4.25401C20.3032 4.36409 20.5618 4.53239 20.7777 4.74814C20.9937 4.96389 21.1622 5.22235 21.2726 5.50697C21.383 5.79159 21.4327 6.09611 21.4186 6.40105L21.3407 8.06152C21.3257 8.38372 21.3818 8.70527 21.5052 9.00327C21.6287 9.30128 21.8163 9.5684 22.0547 9.7856L23.2831 10.9043C23.5089 11.1099 23.6893 11.3603 23.8128 11.6396C23.9362 11.919 24 12.221 24 12.5264C24 12.8318 23.9362 13.1338 23.8128 13.4131C23.6893 13.6924 23.5089 13.9429 23.2831 14.1485L22.0547 15.2671C21.8163 15.4843 21.6287 15.7515 21.5052 16.0495C21.3818 16.3475 21.3257 16.669 21.3407 16.9912L21.4175 18.6506C21.4319 18.9555 21.3824 19.2601 21.2724 19.5448C21.1623 19.8295 20.994 20.0881 20.7782 20.3041C20.5625 20.5201 20.304 20.6886 20.0194 20.799C19.7348 20.9093 19.4303 20.9591 19.1253 20.945L17.4648 20.8671C17.1427 20.852 16.8211 20.9082 16.5231 21.0316C16.2251 21.155 15.958 21.3426 15.7408 21.5811L14.6221 22.8094C14.4165 23.0353 14.166 23.2157 13.8867 23.3391C13.6074 23.4626 13.3054 23.5264 13 23.5264C12.6946 23.5264 12.3926 23.4626 12.1133 23.3391C11.834 23.2157 11.5835 23.0353 11.3779 22.8094L10.2592 21.5811C10.042 21.3426 9.77491 21.155 9.47691 21.0316C9.1789 20.9082 8.85735 20.852 8.53516 20.8671L6.87578 20.9439C6.57085 20.9582 6.26629 20.9088 5.98156 20.7987C5.69683 20.6886 5.43822 20.5203 5.22226 20.3046C5.0063 20.0888 4.83775 19.8304 4.7274 19.5458C4.61705 19.2611 4.56732 18.9566 4.58139 18.6517L4.65926 16.9912C4.67433 16.669 4.61816 16.3475 4.49475 16.0495C4.37134 15.7515 4.18373 15.4843 3.94528 15.2671L2.71693 14.1485C2.49109 13.9429 2.31068 13.6924 2.18722 13.4131C2.06377 13.1338 2 12.8318 2 12.5264C2 12.221 2.06377 11.919 2.18722 11.6396C2.31068 11.3603 2.49109 11.1099 2.71693 10.9043L3.94528 9.7856C4.18373 9.5684 4.37134 9.30128 4.49475 9.00327C4.61816 8.70527 4.67433 8.38372 4.65926 8.06152L4.58249 6.40215C4.56812 6.09722 4.61756 5.79265 4.72764 5.50793C4.83772 5.2232 5.00602 4.96458 5.22177 4.74863C5.43753 4.53267 5.69598 4.36412 5.9806 4.25377C6.26522 4.14341 6.56974 4.09368 6.87468 4.10776L8.53516 4.18563C8.85735 4.2007 9.1789 4.14453 9.47691 4.02112C9.77491 3.89771 10.042 3.7101 10.2592 3.47165L11.3779 2.24329V2.24329Z" stroke="white" stroke-width="2.5"/>
</svg>
