<svg width="22" height="22" viewBox="0 0 22 22" fill="none" xmlns="http://www.w3.org/2000/svg">
<path d="M21.7708 19.2889H3.0625C2.51022 19.2889 2.0625 18.8412 2.0625 18.2889V0.763867C2.0625 0.633242 1.95938 0.526367 1.83333 0.526367H0.229167C0.103125 0.526367 0 0.633242 0 0.763867V21.1889C0 21.3195 0.103125 21.4264 0.229167 21.4264H21.7708C21.8969 21.4264 22 21.3195 22 21.1889V19.5264C22 19.3957 21.8969 19.2889 21.7708 19.2889ZM5.09323 14.7081C5.18203 14.8001 5.32526 14.8001 5.41693 14.7081L8.65671 11.3675C9.05112 10.9608 9.70426 10.9627 10.0964 11.3716L13.0339 14.435C13.1227 14.527 13.2687 14.527 13.3576 14.435L21.2466 6.26199C21.3354 6.16996 21.3354 6.01855 21.2466 5.92652L20.1122 4.7509C20.0692 4.7067 20.011 4.6819 19.9504 4.6819C19.8898 4.6819 19.8316 4.7067 19.7885 4.7509L13.9219 10.8282C13.5278 11.2365 12.8734 11.2354 12.4806 10.8258L9.55052 7.77012C9.50745 7.72592 9.44929 7.70112 9.38867 7.70112C9.32806 7.70112 9.26989 7.72592 9.22682 7.77012L3.96172 13.194C3.91907 13.2387 3.89515 13.2989 3.89515 13.3618C3.89515 13.4246 3.91907 13.4849 3.96172 13.5295L5.09323 14.7081Z" fill="white"/>
</svg>
