<svg width="24" height="24" viewBox="0 0 24 24" fill="none" xmlns="http://www.w3.org/2000/svg">
<path fill-rule="evenodd" clip-rule="evenodd" d="M12 21.1514C14.5527 21.1514 17.0009 20.1373 18.8059 18.3323C20.6109 16.5272 21.625 14.0791 21.625 11.5264C21.625 8.97366 20.6109 6.5255 18.8059 4.72047C17.0009 2.91543 14.5527 1.90137 12 1.90137C9.44729 1.90137 6.99913 2.91543 5.1941 4.72047C3.38906 6.5255 2.375 8.97366 2.375 11.5264C2.375 14.0791 3.38906 16.5272 5.1941 18.3323C6.99913 20.1373 9.44729 21.1514 12 21.1514ZM12 0.526369C14.9174 0.526368 17.7153 1.68529 19.7782 3.74819C21.8411 5.81109 23 8.60899 23 11.5264C23 14.4437 21.8411 17.2416 19.7782 19.3045C17.7153 21.3674 14.9174 22.5264 12 22.5264C9.08262 22.5264 6.28473 21.3674 4.22183 19.3045C2.15893 17.2416 1 14.4437 1 11.5264C0.999999 8.60899 2.15892 5.81109 4.22183 3.74819C6.28473 1.68529 9.08262 0.526369 12 0.526369ZM8.07575 14.4771C7.94666 14.6062 7.87413 14.7813 7.87413 14.9639C7.87413 15.1464 7.94666 15.3215 8.07575 15.4506C8.20484 15.5797 8.37993 15.6522 8.5625 15.6522C8.74507 15.6522 8.92016 15.5797 9.04925 15.4506L14.6813 9.81724L14.6813 13.6232C14.6813 13.8056 14.7537 13.9804 14.8826 14.1094C15.0115 14.2383 15.1864 14.3107 15.3688 14.3107C15.5511 14.3107 15.726 14.2383 15.8549 14.1094C15.9838 13.9804 16.0563 13.8056 16.0563 13.6232L16.0562 8.15762C16.0562 7.97528 15.9838 7.80041 15.8549 7.67148C15.726 7.54255 15.5511 7.47012 15.3687 7.47012L9.90313 7.47012C9.72079 7.47012 9.54592 7.54255 9.41699 7.67148C9.28806 7.80041 9.21563 7.97528 9.21563 8.15762C9.21563 8.33995 9.28806 8.51482 9.41699 8.64375C9.54592 8.77268 9.72079 8.84512 9.90313 8.84512L13.7091 8.84512L8.07575 14.4771Z" fill="white" stroke="white"/>
</svg>
